Coordinates
version=1
nRows=17
nColumns=33
inDegrees=yes

Units are S.I. units (second, meters, Newtons, ...)
Angles are in degrees.

endheader
time	ground_thorax_rot_x	ground_thorax_rot_y	ground_thorax_rot_z	ground_thorax_tx	ground_thorax_ty	ground_thorax_tz	clav_prot_r	clav_elev_r	scapula_abduction_r	scapula_elevation_r	scapula_upward_rot_r	scapula_winging_r	shoulder_elv_r	plane_of_elev_r	axial_rot_r	elbow_flexion_r	pro_sup_r	wrist_flex_r	wrist_dev_r	clav_prot_l	clav_elev_l	scapula_abduction_l	scapula_elevation_l	scapula_upward_rot_l	scapula_winging_l	shoulder_elv_l	plane_of_elev_l	axial_rot_l	elbow_flexion_l	pro_sup_l	wrist_flex_l	wrist_dev_l
      7.13000000	    -40.95682943	    -10.06421692	     16.58351771	   -253.03772622	    834.49181006	     -4.92469243	      9.33703303	    -45.00000000	     39.62435927	    -45.00000000	    -45.00000000	   2421.24742978	  -1185.06662853	    146.17580524	    179.99999979	   1811.99744153	     72.26926154	     27.64380758	      7.84652643	     15.08321234	     38.07035460	    -36.64996860	    -45.00000000	    -44.19451564	  -3155.29792396	  -2806.31368352	     26.59759596	    -24.28718122	   1813.42960819	     45.13875815	     -0.45045769	    -17.83569057
      7.14000000	    -40.95731400	    -10.15862126	     16.61475428	   -251.81499212	    834.47139449	     -4.98425192	      9.38162368	    -45.00000000	     39.66769161	    -45.00000000	    -45.00000000	   2421.32191477	  -1185.03406088	    146.07648458	    179.99999979	   1812.15176088	     72.14672716	     27.61632882	      7.88545262	     15.03659156	     38.09797597	    -36.67881809	    -45.00000000	    -44.01257163	  -3155.32026716	  -2806.32173724	     26.62298275	    -24.15469210	   1813.34765871	     44.24280846	     -0.32699832	    -17.98023632
      7.15000000	    -40.96024112	    -10.26123178	     16.66144560	   -250.52842373	    834.43949825	     -5.04756234	      9.39060930	    -45.00000000	     39.69368402	    -45.00000000	    -45.00000000	   2421.39945390	  -1184.96814016	    146.00135824	    179.99999979	   1812.33570511	     72.00984976	     27.58341213	      7.92237470	     15.04909553	     38.15106194	    -36.74280292	    -45.00000000	    -43.81805842	  -3155.29853855	  -2806.35987363	     26.66453251	    -24.02460254	   1813.27781502	     43.24212590	     -0.19645614	    -18.12763833
      7.16000000	    -40.96834144	    -10.37630459	     16.71577985	   -249.16912936	    834.38770531	     -5.11339481	      9.35602566	    -45.00000000	     39.73470856	    -45.00000000	    -45.00000000	   2421.48885697	  -1184.90446133	    145.95516675	    179.99999979	   1812.53785201	     71.85938863	     27.55244458	      7.96296314	     15.10745208	     38.22487856	    -36.82568565	    -45.00000000	    -43.62189541	  -3155.26713612	  -2806.40630513	     26.69893846	    -23.88422489	   1813.18666827	     42.11713225	     -0.04860120	    -18.27721511
      7.17000000	    -40.96071001	    -10.47187527	     16.73407974	   -247.73155202	    834.30794675	     -5.18049375	      9.45737015	    -45.00000000	     39.77452076	    -45.00000000	    -45.00000000	   2421.55533323	  -1184.84623252	    145.82360703	    179.99999979	   1812.73916397	     71.69994230	     27.51877667	      8.01644676	     15.00238217	     38.25081361	    -36.84065923	    -45.00000000	    -43.37007700	  -3155.32675892	  -2806.42008929	     26.71862927	    -23.77352078	   1813.12237583	     40.94916159	      0.13452829	    -18.45469772
      7.18000000	    -40.96223393	    -10.61396166	     16.80258483	   -246.19431273	    834.18760075	     -5.24634973	      9.45487253	    -45.00000000	     39.83292591	    -45.00000000	    -45.00000000	   2421.66001680	  -1184.79583840	    145.74622561	    179.99999979	   1812.92360651	     71.52587923	     27.48685926	      8.07856233	     15.01899844	     38.30774702	    -36.91124836	    -45.00000000	    -43.14889672	  -3155.32852027	  -2806.46544171	     26.73839470	    -23.64671181	   1813.00465633	     39.68018659	      0.32529820	    -18.60921549
      7.19000000	    -40.96464241	    -10.76946135	     16.92041754	   -244.55207179	    834.01964363	     -5.30993747	      9.38247780	    -45.00000000	     39.91356639	    -45.00000000	    -45.00000000	   2421.76990159	  -1184.74517433	    145.73474061	    179.99999979	   1813.12560280	     71.32645812	     27.46306210	      8.13998681	     15.11620809	     38.40455995	    -37.03133695	    -45.00000000	    -42.94037980	  -3155.30307513	  -2806.53097326	     26.73957789	    -23.53422363	   1812.88613036	     38.25151995	      0.53333579	    -18.76682191
      7.20000000	    -40.95133059	    -10.96428588	     17.06972696	   -242.78833372	    833.79444053	     -5.36919545	      9.22777694	    -45.00000000	     39.94486676	    -45.00000000	    -45.00000000	   2421.91066596	  -1184.70193634	    145.73036287	    179.99999979	   1813.32238822	     71.10093464	     27.44139397	      8.20601957	     15.32756738	     38.53705668	    -37.16829859	    -45.00000000	    -42.78803277	  -3155.26184966	  -2806.63751521	     26.75259200	    -23.45891951	   1812.75779352	     36.59535541	      0.76878049	    -18.92905751
      7.21000000	    -40.92180301	    -11.13349057	     17.22059374	   -240.89561195	    833.50865136	     -5.42211977	      9.18741999	    -45.00000000	     39.97011576	    -45.00000000	    -45.00000000	   2422.01636199	  -1184.66255709	    145.66296516	    179.99999979	   1813.45102133	     70.86409719	     27.41035846	      8.29495350	     15.39847907	     38.62067806	    -37.25808958	    -45.00000000	    -42.59614296	  -3155.28821662	  -2806.72525456	     26.77749372	    -23.41967900	   1812.62770919	     34.83174701	      1.06049995	    -19.11202222
      7.22000000	    -40.88082102	    -11.26691799	     17.31312526	   -238.87621137	    833.16070275	     -5.46901747	      9.63649108	    -45.00000000	     39.96966766	    -45.00000000	    -45.00000000	   2421.98059286	  -1184.61211457	    145.36453289	    179.99999979	   1813.52184197	     70.63072996	     27.35186800	      8.39384879	     14.87386835	     38.51485657	    -37.17413553	    -45.00000000	    -42.24728684	  -3155.41289364	  -2806.70532355	     26.80782430	    -23.42545577	   1812.54741512	     33.34216645	      1.41963500	    -19.32061849
      7.23000000	    -40.86437904	    -11.51962019	     17.60255171	   -236.75056094	    832.75322404	     -5.51143644	      8.89510332	    -45.00000000	     39.94176218	    -45.00000000	    -45.00000000	   2422.16197324	  -1184.55457560	    145.46951854	    179.99999979	   1813.73292895	     70.30362432	     27.39281042	      8.49655398	     15.73026069	     38.78494643	    -37.46319825	    -45.00000000	    -42.28962380	  -3155.42259020	  -2806.75551734	     26.68036966	    -23.34097993	   1812.37754482	     31.07338277	      1.72079652	    -19.46453621
      7.24000000	    -40.79059886	    -11.71385850	     17.74006959	   -234.53055639	    832.28768867	     -5.55103766	      9.82143179	    -45.00000000	     40.02432109	    -45.00000000	    -45.00000000	   2422.12141905	  -1184.59354861	    145.12635940	    179.99999979	   1813.69835185	     70.05728128	     27.28655979	      8.61686282	     14.65979780	     38.59342029	    -37.27420231	    -45.00000000	    -41.76445166	  -3155.53096202	  -2806.83169650	     26.75978987	    -23.51260751	   1812.30221463	     29.66155484	      2.15462144	    -19.64656086
      7.25000000	    -40.76555685	    -12.04452734	     17.97531999	   -232.21239649	    831.76092671	     -5.58674432	      9.56649162	    -45.00000000	     40.12597798	    -45.00000000	    -45.00000000	   2422.36393383	  -1184.60741144	    145.13467051	    179.99999979	   1813.70745442	     69.76408659	     27.27171893	      8.75942601	     14.96020572	     38.68903596	    -37.37710667	    -45.00000000	    -41.61610850	  -3155.49725352	  -2806.97705380	     26.77987560	    -23.52340806	   1812.06478030	     28.13479851	      2.42659624	    -19.68344608
      7.26000000	    -40.70812359	    -12.28820426	     18.30880006	   -229.79837859	    831.17245546	     -5.61882467	      9.00015398	    -45.00000000	     40.05975283	    -45.00000000	    -45.00000000	   2422.53438273	  -1184.53466368	    145.25930881	    179.99999979	   1813.94435466	     69.35137258	     27.28495576	      8.86010796	     15.68817057	     38.97469679	    -37.63857423	    -45.00000000	    -41.64039633	  -3155.48607877	  -2807.09948581	     26.74013382	    -23.60365490	   1812.03270951	     26.10955473	      2.73357430	    -19.77702539
      7.27000000	    -40.64264681	    -12.57589053	     18.61223895	   -227.27271100	    830.51948481	     -5.64574492	      8.98704586	    -45.00000000	     40.09015316	    -45.00000000	    -45.00000000	   2422.68065306	  -1184.57024152	    145.19345955	    179.99999979	   1813.94689963	     68.96254667	     27.25541386	      9.03123596	     15.73910832	     39.02750085	    -37.68031348	    -45.00000000	    -41.45605843	  -3155.55221183	  -2807.19288547	     26.73580989	    -23.75600181	   1811.88574289	     24.17541601	      3.11482154	    -19.83341431
      7.28000000	    -40.58433247	    -12.92628453	     18.90880148	   -224.62815733	    829.80104636	     -5.66614049	      9.10686527	    -45.00000000	     40.15315900	    -45.00000000	    -45.00000000	   2422.82987997	  -1184.60199841	    145.12567720	    179.99999979	   1813.96045500	     68.54653308	     27.20480539	      9.19327652	     15.63584153	     39.07465586	    -37.73134934	    -45.00000000	    -41.23027599	  -3155.54227684	  -2807.35032028	     26.73645017	    -23.96567132	   1811.75321665	     22.45977016	      3.48124827	    -19.86152485
      7.29000000	    -40.51330983	    -13.19794087	     19.23340056	   -221.84416384	    829.01398687	     -5.67795991	      8.98406082	    -45.00000000	     40.10256795	    -45.00000000	    -45.00000000	   2422.94868693	  -1184.64156253	    145.03623836	    179.99999979	   1813.96226781	     68.08492818	     27.18874179	      9.39454178	     15.77790523	     39.15827063	    -37.81041210	    -45.00000000	    -41.06364250	  -3155.65768136	  -2807.42983948	     26.69087905	    -24.23857188	   1811.67591771	     20.74492469	      3.86800432	    -19.89320300
